<svg width="202" height="59" fill="none" xmlns="http://www.w3.org/2000/svg"><g clip-path="url(#clip0)"><path d="M59.9 23.8A25.4 25.4 0 0039.6 8.4 25.8 25.8 0 0016 18a25.3 25.3 0 0016.5 40.7c-.6-2-1.2-4.3-1.7-6.8 1.5 1 3.1 1.8 4.8 2.6l.3 4.5c1.7 0 3.5-.1 5.3-.5v-.7c.3-1.9 1-5.2 1.2-7.4 1.2-1 2.2-2.3 3-3.7l-.1.5c-.6 4.2-1.7 8.7-2.4 10l-.8 1.1a25.7 25.7 0 0019.7-23.7c.2-3.7-.5-7.4-2-10.8zm-1.5 3.8c-.4.4-1.3.7-1.5-.6a34 34 0 01-.2-2.2s-2-3.4-2.6-3.4c-.7 0-5.9 3.4-7.2 5-1.2 1.2-1.4 1.1-1.4 3.4 0 1.7.2 8 0 13l-8 2.1c-2.6.7-5.2 1.3-7.9 1.7l-1-5.8h-.1l-2.6-13s-3.8-1.5-5.2-1.8a3.8 3.8 0 00-4 .6 5 5 0 00-1.7 3.8l.5 1.4c0 .5-1.2.5-2 .5s-1-1.5-.3-3.1a22.5 22.5 0 013.9-6.6s.1-.4 1.2-.3l7.3.5v-2.3A144 144 0 0146 19.2V21c2.6-1.2 5.3-1.8 8.1-2a1 1 0 01.8.4l2.7 3.4 1.8 3-.9 1.8z" fill="#FDC305"/><path d="M56.5 21.5l1 1.3 1.8 3c-.2.6-.5 1.2-.9 1.7-.4.4-1.3.7-1.5-.6l-.2-2.1s-2-3.4-2.6-3.4c-.7 0-5.9 3.4-7.2 5-1.2 1.2-1.4 1.1-1.4 3.4 0 1.4.2 6.6.1 11.1 1.8.2 4.5.7 5.3 1.9 0 0-.3-7.2 7.8-3.4 0 0 .3-9.7 11.5-7.3-3.8-4.4-8.5-8-13.7-10.6zM46 19.2c0-5.5-.5-11-1.5-16.4 0 0-.1-1.3-.8-.2a14 14 0 00-1.2 4c-4.3-.3-8.6-.2-12.9.3-.8-2.8-2.2-4-2.8-3.7-.7.4-.8 3.3-.8 3.3l-.3 14a144 144 0 0120.2-1.3z" fill="#F06351"/><path d="M45.4 46.7l.2-4-8.2 2.2c-2.5.7-5.1 1.3-7.8 1.7l1.2 5v.3c1.5 1 3.1 1.8 4.8 2.5 2.4-1.1 4.7-2.5 6.9-4 1.1-1 2-2.3 2.9-3.7z" fill="#E55645"/><path d="M32 16l1.4 1c.4.2.6.4.6.6 0 .2-.2.3-.6.3-.4 0-1 0-1-.2s.6 0 1 0h.2A8 8 0 0132 16zm7.5.2l-1 1.3c-.2 0-.3.4.1.3l1.2-.3c.1 0 0-.2-.1-.1h-1l.9-1.2s0-.1-.1 0zm-3.1 6.1c.4-.2.8-.6 1-1 .3-.7 0-1-.4-1-.6-.1-1.2 0-1.7.3-.4.4-.4.7 0 1l1 .7z" fill="#000"/><path d="M36 23.5a2 2 0 01-.5.6c-.2.2-.6.4-1 .4-.5 0-1-.1-1.5-.5a2 2 0 01-.5-.4 1 1 0 00-.4-.3s.8 4.1 2.6 4.8c1.8.6 2.1-.8 2.2-1.1 0-1.2-.2-2.3-.8-3.3 0-.3 0 0-.1-.2z" fill="#F06351"/><path d="M34.3 24.6a3.5 3.5 0 01-2.3-1.4.1.1 0 010-.2.1.1 0 01.1 0 3.2 3.2 0 002.2 1.3 2.1 2.1 0 001.6-1l.1-.2.1.3s.4.7 1 .8c.7 0 1.1-.5 1.7-1.3a.1.1 0 01.2 0 .1.1 0 010 .1c-.7 1-1.3 1.5-1.9 1.4a1.6 1.6 0 01-1.1-.7 2.3 2.3 0 01-1.7 1z" fill="#000"/><path d="M36.3 38c2 0 3.7-1.7 3.7-3.7s-1.7-3.7-3.7-3.7c-2.1 0-3.8 1.6-3.8 3.7 0 2 1.7 3.7 3.8 3.7z" fill="#FDC305"/><path d="M41.2 31.2l-3.1 1.3 1.2-5.5-7.5 9.6 3-1.3-1 5.6 7.4-9.7zM33.8 35l4.2-5.3-.8 4 2-.9-4.2 5.4.8-4-2 .8zm-1.4-1.4c.7 0 1.2-.5 1.2-1.1 0-.6-.5-1.1-1.2-1.1-.6 0-1 .5-1 1 0 .7.4 1.2 1 1.2zm6.6 4c.4 0 .8-.3.8-.8 0-.4-.4-.8-.8-.8-.5 0-.8.4-.8.8 0 .5.3.8.8.8zm1-2.1c.1 0 .3-.2.3-.4s-.2-.3-.4-.3-.3.1-.3.3c0 .2.1.4.3.4z" fill="#111"/><path d="M45.9 21a57.2 57.2 0 00-5.1 5.2 31.8 31.8 0 01-5.3 4.8c-.2-.5-1.6-1.5-1.6-1.5s-3.2-2.1-5.2-3.8l-3.2-3h-2c2.9 4.1 7.1 7.2 12 8.7.9-.2 3.3-1.9 5.1-3.3 2.1-1.8 4.1-3.7 6-5.8.5-.6.9-1.3 1.1-2L46 21z" fill="#F06351"/><path d="M65.2 3.5l-8.4 9.3-1.3-2L63.7 0l1.5 3.5zm-2.5 13.6l5.5-4-.8-3.8-5.4 4.8.7 3zM60 49l6 3.1 3-2.3-6.6-2.7-2.5 1.9zM2 6l3-3.4 9.3 9-1.2 2.2L1.9 5.9zm5.4 10.1l-4.7-3-2.4 3.8 5.1 2.4 2-3.2zm6.6 36l-4.6 3.3 2.8 3.6 4-4-2.3-2.9z" fill="#FDC305"/><path d="M26 27.8s-4-1.5-5.4-1.8a3.8 3.8 0 00-4 .6 5 5 0 00-1.7 3.8l.5 1.4c0 .5-1.2.5-2 .5s-1-1.5-.3-3.1c.5-1.3 1-2.6 1.8-3.7-5.4 2.8-15 9.3-15 9.3 2.7-.2 5.5-.1 8.2.2 5.2.5 5 4.6 5 4.6a39 39 0 015.6-1c2.1-.2 2.3 2 2.3 2l.5 3.9c.8-.9 1.7-1.7 2.7-2.4a6 6 0 014.4-1.3l-2.8-13z" fill="#F06351"/><path d="M85.7 41.7a8.2 8.2 0 01-1.4-5.2v-7.4c-.2-1.9.3-3.7 1.3-5.2 1-1.2 2.6-1.8 4.8-1.8 2.2 0 3.8.5 4.5 1.6 1 1.2 1.5 2.8 1.4 4.4V30H92v-2l-.1-1.4c0-.4-.2-.7-.5-1a1.6 1.6 0 00-1.1-.3 1.5 1.5 0 00-1.5.7c-.3.7-.4 1.5-.4 2.2v9.4c0 .8.1 1.5.4 2.2a1.5 1.5 0 001.5.8 1.4 1.4 0 001.4-.8c.2-.7.3-1.4.3-2.2v-2h4.1v1.8c.2 1.6-.3 3.2-1.2 4.5-.9 1.1-2.4 1.7-4.6 1.7-2.1 0-3.8-.6-4.7-1.8zM102 22.4h4.7l4 20.8h-4l-.7-4.6h-3.3l-.8 4.6h-4l4-20.8zm3.6 13.6l-1.3-8.4-1.2 8.4h2.5zm8.1-10.5h-3.2v-3.1h10.7v3.1H118v17.7h-4.3V25.5z" fill="#111"/><path d="M129.6 22.4h8.1v2.2h-5.2v6.8h4.3v2h-4.3v7.7h5.3v2.1h-8.2V22.4zm10.6 0h2l6 13.8V22.4h2.4v20.8h-1.9l-6-14.2v14.2h-2.5V22.4zm13.6 0h8.1v2.2h-5.2v6.8h4.3v2h-4.2v7.7h5.2v2.1h-8.2V22.4zm10.6 0h4.2a7 7 0 014.6 1.3c1 .9 1.5 2.3 1.5 4.2 0 2.7-.8 4.3-2.6 4.9l3 10.4h-2.8l-2.7-9.8h-2.3v9.8h-3V22.4zm4 9c1 0 1.9-.3 2.7-.8a3.5 3.5 0 00.8-2.7c0-.7-.1-1.4-.3-2a1.9 1.9 0 00-1-1c-.7-.3-1.4-.5-2-.4h-1.4v6.9h1.2zm10.3 10.3a9.1 9.1 0 01-1.3-5.3v-7c0-1.3.1-2.7.5-4 .3-1 1-1.8 1.7-2.3a6 6 0 013.4-.9 5.3 5.3 0 014.2 1.5c1 1.3 1.4 3 1.3 4.6v.8h-2.8v-.7c0-.8 0-1.5-.2-2.3 0-.5-.3-1-.7-1.2a3 3 0 00-1.7-.4c-.7 0-1.3.1-1.9.5-.4.4-.6 1-.7 1.5l-.2 2.5v7.7c0 1.2.1 2.4.6 3.4a2.8 2.8 0 003.5.8c.4-.2.7-.5 1-.9a8 8 0 00.6-3.6V35h-2.7v-2.1h5.3v10.3h-1.8l-.3-2.4a3.7 3.7 0 01-3.7 2.7 4.7 4.7 0 01-4.1-1.8zm16-5.8l-4.5-13.5h2.7l3.2 10 3.2-10h2.7l-4.5 13.5v7.3h-2.8v-7.3z" fill="#444"/></g><defs><clipPath id="clip0"><path fill="#fff" d="M0 0h202v59H0z"/></clipPath></defs></svg>